<?xml version="1.0" encoding="UTF-8" standalone="no"?>
<svg
   enable-background="new 0 0 100 100"
   height="89.599998"
   version="1.1"
   viewBox="0 0 56.599998 89.599998"
   width="56.599998"
   xml:space="preserve"
   id="svg2032"
   sodipodi:docname="endurance-symbol.svg"
   inkscape:version="1.2.2 (b0a8486541, 2022-12-01)"
   xmlns:inkscape="http://www.inkscape.org/namespaces/inkscape"
   xmlns:sodipodi="http://sodipodi.sourceforge.net/DTD/sodipodi-0.dtd"
   xmlns="http://www.w3.org/2000/svg"
   xmlns:svg="http://www.w3.org/2000/svg"><defs
     id="defs2036" /><sodipodi:namedview
     id="namedview2034"
     pagecolor="#ffffff"
     bordercolor="#000000"
     borderopacity="0.25"
     inkscape:showpageshadow="2"
     inkscape:pageopacity="0.0"
     inkscape:pagecheckerboard="0"
     inkscape:deskcolor="#d1d1d1"
     showgrid="false"
     inkscape:zoom="3.3234019"
     inkscape:cx="51.453302"
     inkscape:cy="37.01027"
     inkscape:window-width="1366"
     inkscape:window-height="699"
     inkscape:window-x="0"
     inkscape:window-y="0"
     inkscape:window-maximized="1"
     inkscape:current-layer="black_exp" /><g
     id="white_exp"
     transform="translate(-21.7,-6.7)" /><g
     id="black_exp"
     style="fill:none;stroke:#ff0000;stroke-width:1"
     transform="translate(-21.7,-6.7)"><path
       d="M 31,23 V 8 h 7 v 6 h 6 V 8 h 12 v 6 h 6 V 8 h 7 v 15 c 0,2.2 -1.8,4 -4,4 H 35 c -2.2,0 -4,-1.8 -4,-4 z m 34,11 c 1.1,0 2,-0.9 2,-2 0,-1.1 -0.9,-2 -2,-2 H 35 c -1.1,0 -2,0.9 -2,2 0,1.1 0.9,2 2,2 z M 30,86 h 40 c 1.1,0 2,-0.9 2,-2 0,-1.1 -0.9,-2 -2,-2 H 30 c -1.1,0 -2,0.9 -2,2 0,1.1 0.9,2 2,2 z m 43,1 H 27 c -2.2,0 -4,1.8 -4,4 0,2.2 1.8,4 4,4 h 46 c 2.2,0 4,-1.8 4,-4 0,-2.2 -1.8,-4 -4,-4 z M 68.262,81 C 66.464,74.751 62,72.139 62,37 H 38 c 0,35.139 -4.464,37.751 -6.262,44 z"
       id="path2029"
       style="fill:none;stroke:#ffffff;stroke-width:2.6"
       sodipodi:nodetypes="sccccccccccsssssssssssssssssssssssssccccc" /></g></svg>
