<?xml version="1.0" encoding="UTF-8" standalone="no"?>
<svg
   enable-background="new 0 0 48 48"
   height="189.02841"
   id="Layer_1"
   version="1.1"
   viewBox="0 0 197.86317 189.02841"
   width="197.86317"
   xml:space="preserve"
   sodipodi:docname="responsibility-symbol.svg"
   inkscape:version="1.2.2 (b0a8486541, 2022-12-01)"
   xmlns:inkscape="http://www.inkscape.org/namespaces/inkscape"
   xmlns:sodipodi="http://sodipodi.sourceforge.net/DTD/sodipodi-0.dtd"
   xmlns="http://www.w3.org/2000/svg"
   xmlns:svg="http://www.w3.org/2000/svg"><defs
     id="defs7" /><sodipodi:namedview
     id="namedview5"
     pagecolor="#ffffff"
     bordercolor="#000000"
     borderopacity="0.25"
     inkscape:showpageshadow="2"
     inkscape:pageopacity="0.0"
     inkscape:pagecheckerboard="0"
     inkscape:deskcolor="#d1d1d1"
     showgrid="false"
     inkscape:zoom="1.7309385"
     inkscape:cx="110.34477"
     inkscape:cy="93.590848"
     inkscape:window-width="1366"
     inkscape:window-height="699"
     inkscape:window-x="0"
     inkscape:window-y="0"
     inkscape:window-maximized="1"
     inkscape:current-layer="Layer_1" /><path
     clip-rule="evenodd"
     d="m 184.48388,50.20407 c -1.48245,-2.594849 -3.06344,-5.122474 -4.76535,-7.564949 5.24009,-3.12816 8.78723,-8.797389 8.78723,-15.349495 0,-9.899864 -8.02137,-17.9264175 -17.91483,-17.9264175 -6.54788,0 -12.21344,3.5494305 -15.33958,8.7973895 -2.4409,-1.707492 -4.96241,-3.285016 -7.56006,-4.768428 4.7116,-7.762138 13.16292,-12.9921705 22.89964,-12.9921705 14.83796,0 26.87225,12.0420705 26.87225,26.8896265 0,9.743008 -5.23113,18.199796 -12.9793,22.914444 z m 4.02188,48.791228 c 0,23.174382 -8.86336,44.224472 -23.28928,60.138652 l 22.01285,22.02709 c 1.70639,1.70749 1.70639,4.47712 0,6.18909 -1.71087,1.70749 -4.47871,1.70749 -6.1851,0 l -22.01285,-22.02708 c -15.90389,14.43524 -36.94039,23.30434 -60.099791,23.30434 -23.159402,0 -44.195896,-8.8691 -60.095312,-23.30434 l -22.017331,22.02708 c -1.706388,1.70749 -4.478709,1.70749 -6.185097,0 -1.7063884,-1.71197 -1.7063884,-4.4816 0,-6.18909 L 32.646702,159.13395 C 18.220781,143.21977 9.3574166,122.16968 9.3574166,98.995298 c 0,-49.503803 40.1023574,-89.6320895 89.5741724,-89.6320895 49.471811,0 89.574171,40.1282865 89.574171,89.6320895 z M 98.931589,18.326417 c -44.522842,0 -80.616755,36.117251 -80.616755,80.668881 0,44.551632 36.093913,80.668882 80.616755,80.668882 44.522841,0 80.616751,-36.11725 80.616751,-80.668882 0,-44.55163 -36.09391,-80.668881 -80.616751,-80.668881 z m 4.478711,97.958913 v 40.97083 c 0,2.47832 -2.00199,4.4816 -4.478711,4.4816 -2.476726,0 -4.478708,-2.00328 -4.478708,-4.4816 v -40.97083 c -7.716815,-1.9988 -13.436126,-8.94977 -13.436126,-17.290032 0,-3.356722 0.980837,-6.457992 2.588693,-9.146955 L 64.378352,70.613297 c -1.706388,-1.707492 -1.706388,-4.481605 0,-6.189096 1.710867,-1.707491 4.478709,-1.707491 6.185097,0 l 19.227096,19.235046 c 2.687225,-1.608896 5.786491,-2.590367 9.141044,-2.590367 9.893471,0 17.914831,8.026554 17.914831,17.926418 0,8.340262 -5.71931,15.291232 -13.43612,17.290032 z M 98.931589,90.032089 c -4.944494,0 -8.957417,4.015518 -8.957417,8.963209 0,4.947692 4.012923,8.963212 8.957417,8.963212 4.944491,0 8.957421,-4.01552 8.957421,-8.963212 0,-4.947691 -4.01293,-8.963209 -8.957421,-8.963209 z M 27.272252,9.3632085 c -9.893468,0 -17.9148354,8.0265535 -17.9148354,17.9264175 0,6.552106 3.5516164,12.221335 8.7917054,15.349495 -1.706388,2.442475 -3.282893,4.9701 -4.765346,7.564949 C 5.6311311,45.489422 0.3999995,37.032634 0.3999995,27.289626 0.3999995,12.44207 12.43429,0.3999995 27.272252,0.3999995 c 9.736712,0 18.188035,5.2300325 22.899637,12.9921705 -2.597651,1.483412 -5.123643,3.060936 -7.560061,4.768428 C 39.48569,12.912639 33.815645,9.3632085 27.272252,9.3632085 Z"
     fill-rule="evenodd"
     id="path2"
     style="fill:#ffffff;stroke:#ffffff;stroke-width:0.799999" /></svg>
