<?xml version="1.0" encoding="UTF-8" standalone="no"?>
<svg
   viewBox="0 0 32 32"
   version="1.1"
   id="svg5"
   sodipodi:docname="website-priceCatalog-option.svg"
   inkscape:version="1.2.2 (b0a8486541, 2022-12-01)"
   xmlns:inkscape="http://www.inkscape.org/namespaces/inkscape"
   xmlns:sodipodi="http://sodipodi.sourceforge.net/DTD/sodipodi-0.dtd"
   xmlns="http://www.w3.org/2000/svg"
   xmlns:svg="http://www.w3.org/2000/svg">
  <defs
     id="defs9" />
  <sodipodi:namedview
     id="namedview7"
     pagecolor="#ffffff"
     bordercolor="#000000"
     borderopacity="0.25"
     inkscape:showpageshadow="2"
     inkscape:pageopacity="0.0"
     inkscape:pagecheckerboard="0"
     inkscape:deskcolor="#d1d1d1"
     showgrid="false"
     inkscape:zoom="10.385631"
     inkscape:cx="14.057884"
     inkscape:cy="15.11704"
     inkscape:window-width="1366"
     inkscape:window-height="699"
     inkscape:window-x="0"
     inkscape:window-y="0"
     inkscape:window-maximized="1"
     inkscape:current-layer="Layer_23"
     showguides="false">
    <sodipodi:guide
       position="22.67556,21.397108"
       orientation="0,-1"
       id="guide4343"
       inkscape:locked="false" />
    <sodipodi:guide
       position="4.0463985,21.397108"
       orientation="1,0"
       id="guide4380"
       inkscape:locked="false" />
    <sodipodi:guide
       position="15.265037,14.998973"
       orientation="1,0"
       id="guide4382"
       inkscape:locked="false" />
    <sodipodi:guide
       position="27.046399,20.897108"
       orientation="1,0"
       id="guide4384"
       inkscape:locked="false" />
  </sodipodi:namedview>
  <g
     data-name="Layer 23"
     id="Layer_23"
     style="fill:#000000">
    <path
       d="M 28,3.5 H 4 C 2.6192881,3.5 1.5,4.6192881 1.5,6 v 20 c 0,1.380712 1.1192881,2.5 2.5,2.5 h 24 c 1.380712,0 2.5,-1.119288 2.5,-2.5 V 6 C 30.5,4.6192881 29.380712,3.5 28,3.5 Z M 29.5,26 c 0,0.828427 -0.671573,1.5 -1.5,1.5 H 4 C 3.1715729,27.5 2.5,26.828427 2.5,26 V 8.5 h 27 z M 2.5,7.5 V 6 C 2.5,5.1715729 3.1715729,4.5 4,4.5 h 24 c 0.828427,0 1.5,0.6715729 1.5,1.5 V 7.5 Z M 27.5,6 c 0,0.7853982 -1.285398,-0.5 -0.5,-0.5 0.276142,0 0.5,0.2238576 0.5,0.5 z M 26,6 C 26,6.7853982 24.714602,5.5 25.5,5.5 25.776142,5.5 26,5.7238576 26,6 Z m -1.5,0 c 0,0.7853982 -1.285398,-0.5 -0.5,-0.5 0.276142,0 0.5,0.2238576 0.5,0.5 z M 4.0463985,18.818393 c 0,-0.276143 0.223858,-0.500001 0.5,-0.500001 H 15.265037 c 0.666666,0 0.666666,1.000001 0,1.000001 H 4.5463985 c -0.276142,0 -0.5,-0.223858 -0.5,-0.5 z m 0.5,-1.817366 H 15.265037 c 0.276142,0 0.5,-0.223858 0.5,-0.5 v -5.898135 c 0,-0.276142 -0.223858,-0.5 -0.5,-0.5 H 4.5463985 c -0.276142,0 -0.5,0.223858 -0.5,0.5 v 5.898135 c 0,0.276142 0.223858,0.5 0.5,0.5 z m 0.5,-5.898135 h 9.7186385 v 4.898135 H 5.0463985 Z m -1,9.822861 c 0,-0.276143 0.223858,-0.500001 0.5,-0.500001 H 15.265037 c 0.666666,0 0.666666,1.000001 0,1.000001 H 4.5463985 c -0.276142,0 -0.5,-0.223858 -0.5,-0.5 z m 5.3015564,4.836929 h 5.9170821 c 0.276142,0 0.5,-0.223858 0.5,-0.5 v -2.335563 c 0,-0.276142 -0.223858,-0.5 -0.5,-0.5 H 9.3479549 c -0.276142,0 -0.5,0.223858 -0.5,0.5 v 2.335563 c 0,0.276142 0.223858,0.5 0.5,0.5 z m 0.5,-2.335563 h 4.9170821 v 1.335563 H 9.8479549 Z m 6.9071201,-4.608726 c 0,-0.276143 0.223858,-0.500001 0.5,-0.500001 h 10.718638 c 0.666666,0 0.666666,1.000001 0,1.000001 H 17.255075 c -0.276142,0 -0.5,-0.223858 -0.5,-0.5 z m 0.5,-1.817366 h 10.718638 c 0.276142,0 0.5,-0.223858 0.5,-0.5 v -5.898135 c 0,-0.276142 -0.223858,-0.5 -0.5,-0.5 H 17.255075 c -0.276142,0 -0.5,0.223858 -0.5,0.5 v 5.898135 c 0,0.276142 0.223858,0.5 0.5,0.5 z m 0.5,-5.898135 h 9.718638 v 4.898135 h -9.718638 z m -1,9.822861 c 0,-0.276143 0.223858,-0.500001 0.5,-0.500001 h 10.718638 c 0.666666,0 0.666666,1.000001 0,1.000001 H 17.255075 c -0.276142,0 -0.5,-0.223858 -0.5,-0.5 z m 5.301556,4.836929 h 5.917082 c 0.276142,0 0.5,-0.223858 0.5,-0.5 v -2.335563 c 0,-0.276142 -0.223858,-0.5 -0.5,-0.5 h -5.917082 c -0.276142,0 -0.5,0.223858 -0.5,0.5 v 2.335563 c 0,0.276142 0.223858,0.5 0.5,0.5 z m 0.5,-2.335563 h 4.917082 v 1.335563 h -4.917082 z"
       id="path2"
       style="fill:#ffffff"
       sodipodi:nodetypes="sssssssssssssccscssssccsssssssssssssssssssssssscccccssssssssssssssscccccssssssssssssssscccccsssssssssssssssccccc" />
  </g>
</svg>
