<?xml version="1.0" encoding="UTF-8" standalone="no"?>
<svg
   viewBox="0 0 32 32"
   version="1.1"
   id="svg5"
   sodipodi:docname="website-institutional-option.svg"
   inkscape:version="1.2.2 (b0a8486541, 2022-12-01)"
   xmlns:inkscape="http://www.inkscape.org/namespaces/inkscape"
   xmlns:sodipodi="http://sodipodi.sourceforge.net/DTD/sodipodi-0.dtd"
   xmlns="http://www.w3.org/2000/svg"
   xmlns:svg="http://www.w3.org/2000/svg">
  <defs
     id="defs9" />
  <sodipodi:namedview
     id="namedview7"
     pagecolor="#ffffff"
     bordercolor="#000000"
     borderopacity="0.25"
     inkscape:showpageshadow="2"
     inkscape:pageopacity="0.0"
     inkscape:pagecheckerboard="0"
     inkscape:deskcolor="#d1d1d1"
     showgrid="false"
     inkscape:zoom="10.385631"
     inkscape:cx="27.634334"
     inkscape:cy="20.99054"
     inkscape:window-width="1366"
     inkscape:window-height="699"
     inkscape:window-x="0"
     inkscape:window-y="0"
     inkscape:window-maximized="1"
     inkscape:current-layer="Layer_23"
     showguides="false">
    <sodipodi:guide
       position="4.5,12.737474"
       orientation="1,0"
       id="guide263"
       inkscape:locked="false" />
    <sodipodi:guide
       position="27,12.237474"
       orientation="1,0"
       id="guide265"
       inkscape:locked="false" />
    <sodipodi:guide
       position="16.945878,11.060749"
       orientation="0,-1"
       id="guide267"
       inkscape:locked="false" />
    <sodipodi:guide
       position="18.756076,5.631796"
       orientation="0,-1"
       id="guide319"
       inkscape:locked="false" />
    <sodipodi:guide
       position="22.892206,8.3134276"
       orientation="0,-1"
       id="guide321"
       inkscape:locked="false" />
  </sodipodi:namedview>
  <g
     data-name="Layer 23"
     id="Layer_23"
     style="fill:#000000">
    <path
       d="M 28,3.5 H 4 C 2.6192881,3.5 1.5,4.6192881 1.5,6 v 20 c 0,1.380712 1.1192881,2.5 2.5,2.5 h 24 c 1.380712,0 2.5,-1.119288 2.5,-2.5 V 6 C 30.5,4.6192881 29.380712,3.5 28,3.5 Z M 29.5,26 c 0,0.828427 -0.671573,1.5 -1.5,1.5 H 4 C 3.1715729,27.5 2.5,26.828427 2.5,26 V 8.5 h 27 z M 2.5,7.5 V 6 C 2.5,5.1715729 3.1715729,4.5 4,4.5 h 24 c 0.828427,0 1.5,0.6715729 1.5,1.5 V 7.5 Z M 27.5,6 c 0,0.7853982 -1.285398,-0.5 -0.5,-0.5 0.276142,0 0.5,0.2238576 0.5,0.5 z M 26,6 C 26,6.7853982 24.714602,5.5 25.5,5.5 25.776142,5.5 26,5.7238576 26,6 Z m -1.5,0 c 0,0.7853982 -1.285398,-0.5 -0.5,-0.5 0.276142,0 0.5,0.2238576 0.5,0.5 z M 18.756076,26.368204 27,26.355984 c 0.276142,-4.09e-4 0.5,-0.223858 0.5,-0.5 v -4.416733 c 0,-0.276142 -0.223858,-0.500409 -0.5,-0.5 l -8.243924,0.01222 c -0.276142,4.09e-4 -0.5,0.223858 -0.5,0.5 v 4.416733 c 0,0.276142 0.223858,0.500409 0.5,0.5 z m 0.5,-4.416733 L 26.5,21.939251 v 3.416733 l -7.243924,0.01222 z M 4.5,21.439252 c 0,-0.276143 0.223858,-0.500001 0.5,-0.500001 h 11.945878 c 0.666666,0 0.666666,1.000001 0,1.000001 H 5 c -0.276142,0 -0.5,-0.223858 -0.5,-0.5 z M 5,19.762526 h 22 c 0.276142,0 0.5,-0.223858 0.5,-0.5 V 10.262755 C 27.5,9.9866127 27.276142,9.7627547 27,9.7627547 H 5 c -0.276142,0 -0.5,0.223858 -0.5,0.5000003 v 8.999771 c 0,0.276142 0.223858,0.5 0.5,0.5 z m 0.5,-8.999771 h 21 v 7.999771 h -21 z m -1,12.923817 c 0,-0.276143 0.223858,-0.500001 0.5,-0.500001 h 11.945878 c 0.666666,0 0.666666,1.000001 0,1.000001 H 5 c -0.276142,0 -0.5,-0.223858 -0.5,-0.5 z m 0,2.181632 c 0,-0.276143 0.223858,-0.500001 0.5,-0.500001 h 11.945878 c 0.666666,0 0.666666,1.000001 0,1.000001 H 5 c -0.276142,0 -0.5,-0.223858 -0.5,-0.5 z"
       id="path2"
       style="fill:#ffffff"
       sodipodi:nodetypes="sssssssssssssccscssssccsssssssssssssssssscccccssssssssssssssscccccssssssssssss" />
  </g>
</svg>
