<?xml version="1.0" encoding="UTF-8" standalone="no"?>
<svg
   viewBox="0 0 32 32"
   version="1.1"
   id="svg5"
   sodipodi:docname="website-gallery-option.svg"
   inkscape:version="1.2.2 (b0a8486541, 2022-12-01)"
   xmlns:inkscape="http://www.inkscape.org/namespaces/inkscape"
   xmlns:sodipodi="http://sodipodi.sourceforge.net/DTD/sodipodi-0.dtd"
   xmlns="http://www.w3.org/2000/svg"
   xmlns:svg="http://www.w3.org/2000/svg">
  <defs
     id="defs9" />
  <sodipodi:namedview
     id="namedview7"
     pagecolor="#ffffff"
     bordercolor="#000000"
     borderopacity="0.25"
     inkscape:showpageshadow="2"
     inkscape:pageopacity="0.0"
     inkscape:pagecheckerboard="0"
     inkscape:deskcolor="#d1d1d1"
     showgrid="false"
     inkscape:zoom="10.385631"
     inkscape:cx="17.524212"
     inkscape:cy="15.213327"
     inkscape:window-width="1366"
     inkscape:window-height="699"
     inkscape:window-x="0"
     inkscape:window-y="0"
     inkscape:window-maximized="1"
     inkscape:current-layer="Layer_23"
     showguides="false">
    <sodipodi:guide
       position="22.67556,21.397108"
       orientation="0,-1"
       id="guide4343"
       inkscape:locked="false" />
    <sodipodi:guide
       position="4.0463985,21.397108"
       orientation="1,0"
       id="guide4380"
       inkscape:locked="false" />
    <sodipodi:guide
       position="15.265037,14.998973"
       orientation="1,0"
       id="guide4382"
       inkscape:locked="false" />
    <sodipodi:guide
       position="3.7808573,15.498973"
       orientation="1,0"
       id="guide4384"
       inkscape:locked="false" />
    <sodipodi:guide
       position="13.31384,21.897108"
       orientation="0,-1"
       id="guide1639"
       inkscape:locked="false" />
  </sodipodi:namedview>
  <g
     data-name="Layer 23"
     id="Layer_23"
     style="fill:#000000">
    <path
       d="M 28,3.5 H 4 C 2.6192881,3.5 1.5,4.6192881 1.5,6 v 20 c 0,1.380712 1.1192881,2.5 2.5,2.5 h 24 c 1.380712,0 2.5,-1.119288 2.5,-2.5 V 6 C 30.5,4.6192881 29.380712,3.5 28,3.5 Z M 29.5,26 c 0,0.828427 -0.671573,1.5 -1.5,1.5 H 4 C 3.1715729,27.5 2.5,26.828427 2.5,26 V 8.5 h 27 z M 2.5,7.5 V 6 C 2.5,5.1715729 3.1715729,4.5 4,4.5 h 24 c 0.828427,0 1.5,0.6715729 1.5,1.5 V 7.5 Z M 27.5,6 c 0,0.7853982 -1.285398,-0.5 -0.5,-0.5 0.276142,0 0.5,0.2238576 0.5,0.5 z M 26,6 C 26,6.7853982 24.714602,5.5 25.5,5.5 25.776142,5.5 26,5.7238576 26,6 Z m -1.5,0 c 0,0.7853982 -1.285398,-0.5 -0.5,-0.5 0.276142,0 0.5,0.2238576 0.5,0.5 z M 4.1523999,17.491984 h 6.7674421 c 0.276142,0 0.5,-0.223858 0.5,-0.5 v -5.898135 c 0,-0.276142 -0.223858,-0.5 -0.5,-0.5 H 4.1523999 c -0.276142,0 -0.5,0.223858 -0.5,0.5 v 5.898135 c 0,0.276142 0.223858,0.5 0.5,0.5 z m 0.5,-5.898135 h 5.7674421 v 4.898135 H 4.6523999 Z m 7.9543441,5.898135 h 6.767442 c 0.276142,0 0.5,-0.223858 0.5,-0.5 v -5.898135 c 0,-0.276142 -0.223858,-0.5 -0.5,-0.5 h -6.767442 c -0.276142,0 -0.5,0.223858 -0.5,0.5 v 5.898135 c 0,0.276142 0.223858,0.5 0.5,0.5 z m 0.5,-5.898135 h 5.767442 v 4.898135 h -5.767442 z m 7.857691,5.898135 h 6.767442 c 0.276142,0 0.5,-0.223858 0.5,-0.5 v -5.898135 c 0,-0.276142 -0.223858,-0.5 -0.5,-0.5 h -6.767442 c -0.276142,0 -0.5,0.223858 -0.5,0.5 v 5.898135 c 0,0.276142 0.223858,0.5 0.5,0.5 z m 0.5,-5.898135 h 5.767442 v 4.898135 H 21.464435 Z M 4.1523999,25.225086 h 6.7674421 c 0.276142,0 0.5,-0.223858 0.5,-0.5 v -5.898135 c 0,-0.276142 -0.223858,-0.5 -0.5,-0.5 H 4.1523999 c -0.276142,0 -0.5,0.223858 -0.5,0.5 v 5.898135 c 0,0.276142 0.223858,0.5 0.5,0.5 z m 0.5,-5.898135 h 5.7674421 v 4.898135 H 4.6523999 Z m 7.9543441,5.898135 h 6.767442 c 0.276141,0 0.499999,-0.223858 0.499999,-0.5 v -5.898135 c 0,-0.276142 -0.223858,-0.5 -0.499999,-0.5 h -6.767442 c -0.276142,0 -0.5,0.223858 -0.5,0.5 v 5.898135 c 0,0.276142 0.223858,0.5 0.5,0.5 z m 0.5,-5.898135 h 5.767442 v 4.898135 h -5.767442 z m 7.85769,5.898135 h 6.767442 c 0.276142,0 0.5,-0.223858 0.5,-0.5 v -5.898135 c 0,-0.276142 -0.223858,-0.5 -0.5,-0.5 h -6.767442 c -0.276142,0 -0.5,0.223858 -0.5,0.5 v 5.898135 c 0,0.276142 0.223858,0.5 0.5,0.5 z m 0.5,-5.898135 h 5.767442 v 4.898135 h -5.767442 z"
       id="path2"
       style="fill:#ffffff"
       sodipodi:nodetypes="sssssssssssssccscssssccsssssssssssssssssscccccssssssssscccccssssssssscccccssssssssscccccssssssssscccccsssssssssccccc" />
  </g>
</svg>
