<?xml version="1.0" encoding="UTF-8" standalone="no"?>
<svg
   viewBox="0 0 32 32"
   version="1.1"
   id="svg5"
   sodipodi:docname="website-blog-option.svg"
   inkscape:version="1.2.2 (b0a8486541, 2022-12-01)"
   xmlns:inkscape="http://www.inkscape.org/namespaces/inkscape"
   xmlns:sodipodi="http://sodipodi.sourceforge.net/DTD/sodipodi-0.dtd"
   xmlns="http://www.w3.org/2000/svg"
   xmlns:svg="http://www.w3.org/2000/svg">
  <defs
     id="defs9" />
  <sodipodi:namedview
     id="namedview7"
     pagecolor="#ffffff"
     bordercolor="#000000"
     borderopacity="0.25"
     inkscape:showpageshadow="2"
     inkscape:pageopacity="0.0"
     inkscape:pagecheckerboard="0"
     inkscape:deskcolor="#d1d1d1"
     showgrid="false"
     inkscape:zoom="14.6875"
     inkscape:cx="16"
     inkscape:cy="16"
     inkscape:window-width="1366"
     inkscape:window-height="699"
     inkscape:window-x="0"
     inkscape:window-y="0"
     inkscape:window-maximized="1"
     inkscape:current-layer="svg5" />
  <g
     data-name="Layer 23"
     id="Layer_23"
     style="fill:#ffffff">
    <path
       d="M28,3.5H4A2.5,2.5,0,0,0,1.5,6V26A2.5,2.5,0,0,0,4,28.5H28A2.5,2.5,0,0,0,30.5,26V6A2.5,2.5,0,0,0,28,3.5ZM29.5,26A1.5,1.5,0,0,1,28,27.5H4A1.5,1.5,0,0,1,2.5,26V8.5h27ZM2.5,7.5V6A1.5,1.5,0,0,1,4,4.5H28A1.5,1.5,0,0,1,29.5,6V7.5ZM27.5,6a.5.5,0,1,1-.5-.5A.5.5,0,0,1,27.5,6ZM26,6a.5.5,0,1,1-.5-.5A.5.5,0,0,1,26,6ZM24.5,6a.5.5,0,1,1-.5-.5A.5.5,0,0,1,24.5,6ZM5,14.5H9a.5.5,0,0,0,.5-.5V10A.5.5,0,0,0,9,9.5H5a.5.5,0,0,0-.5.5v4A.5.5,0,0,0,5,14.5Zm.5-4h3v3h-3ZM5,20.5H9a.5.5,0,0,0,.5-.5V16a.5.5,0,0,0-.5-.5H5a.5.5,0,0,0-.5.5v4A.5.5,0,0,0,5,20.5Zm.5-4h3v3h-3ZM5,26.5H9a.5.5,0,0,0,.5-.5V22a.5.5,0,0,0-.5-.5H5a.5.5,0,0,0-.5.5v4A.5.5,0,0,0,5,26.5Zm.5-4h3v3h-3Zm5-11.5a.5.5,0,0,1,.5-.5H27a.5.5,0,0,1,0,1H11A.5.5,0,0,1,10.5,11Zm0,2a.5.5,0,0,1,.5-.5H27a.5.5,0,0,1,0,1H11A.5.5,0,0,1,10.5,13Zm0,4a.5.5,0,0,1,.5-.5H27a.5.5,0,0,1,0,1H11A.5.5,0,0,1,10.5,17Zm0,2a.5.5,0,0,1,.5-.5H27a.5.5,0,0,1,0,1H11A.5.5,0,0,1,10.5,19Zm0,4a.5.5,0,0,1,.5-.5H27a.5.5,0,0,1,0,1H11A.5.5,0,0,1,10.5,23Zm0,2a.5.5,0,0,1,.5-.5H27a.5.5,0,0,1,0,1H11A.5.5,0,0,1,10.5,25Z"
       id="path2"
       style="fill:#ffffff" />
  </g>
</svg>
