<?xml version="1.0" encoding="UTF-8" standalone="no"?>
<svg
   id="Layer_1"
   viewBox="0 0 343.58001 345.24"
   version="1.1"
   sodipodi:docname="whatsapp-logo-wordmark-white.svg"
   width="343.58002"
   height="345.23999"
   inkscape:version="1.2.2 (b0a8486541, 2022-12-01)"
   xmlns:inkscape="http://www.inkscape.org/namespaces/inkscape"
   xmlns:sodipodi="http://sodipodi.sourceforge.net/DTD/sodipodi-0.dtd"
   xmlns="http://www.w3.org/2000/svg"
   xmlns:svg="http://www.w3.org/2000/svg">
  <sodipodi:namedview
     id="namedview9"
     pagecolor="#ffffff"
     bordercolor="#000000"
     borderopacity="0.25"
     inkscape:showpageshadow="2"
     inkscape:pageopacity="0.0"
     inkscape:pagecheckerboard="0"
     inkscape:deskcolor="#d1d1d1"
     showgrid="false"
     inkscape:zoom="0.68358245"
     inkscape:cx="743.87515"
     inkscape:cy="172.62"
     inkscape:window-width="1680"
     inkscape:window-height="981"
     inkscape:window-x="0"
     inkscape:window-y="0"
     inkscape:window-maximized="1"
     inkscape:current-layer="Layer_1" />
  <defs
     id="defs4">
    <style
       id="style2">.cls-1{fill:#fff;}</style>
  </defs>
  <path
     class="cls-1"
     d="M 172.51,0 C 78.22,0 1.47,76.74 1.43,171.06 1.42,201.21 9.3,230.64 24.27,256.58 L 0,345.24 90.69,321.45 c 24.99,13.63 53.12,20.81 81.75,20.82 h 0.07 c 94.28,0 171.03,-76.75 171.07,-171.07 C 343.6,125.49 325.82,82.51 293.52,50.18 261.22,17.84 218.27,0.02 172.51,0 Z m 0,313.38 h -0.06 c -25.51,0 -50.54,-6.87 -72.37,-19.82 l -5.19,-3.08 -53.81,14.12 14.36,-52.47 -3.38,-5.38 C 37.83,224.11 30.31,197.94 30.32,171.08 30.35,92.68 94.14,28.9 172.57,28.9 c 37.98,0.01 73.68,14.82 100.52,41.7 26.85,26.87 41.62,62.6 41.61,100.59 -0.03,78.4 -63.82,142.19 -142.19,142.19 z M 250.5,206.89 c -4.27,-2.14 -25.29,-12.48 -29.21,-13.91 -3.92,-1.43 -6.77,-2.14 -9.62,2.14 -2.85,4.28 -11.04,13.91 -13.53,16.76 -2.49,2.86 -4.99,3.21 -9.26,1.07 -4.27,-2.14 -18.05,-6.66 -34.37,-21.22 -12.71,-11.33 -21.29,-25.33 -23.78,-29.61 -2.49,-4.28 -0.27,-6.59 1.88,-8.72 1.92,-1.91 4.27,-4.99 6.41,-7.49 2.14,-2.5 2.85,-4.28 4.27,-7.14 1.42,-2.85 0.71,-5.35 -0.36,-7.49 -1.07,-2.14 -9.62,-23.18 -13.18,-31.74 -3.47,-8.33 -6.99,-7.21 -9.62,-7.34 -2.49,-0.13 -5.34,-0.15 -8.19,-0.15 -2.85,0 -7.48,1.07 -11.4,5.35 -3.92,4.28 -14.96,14.62 -14.96,35.66 0,21.04 15.32,41.37 17.45,44.22 2.14,2.85 30.14,46.03 73.02,64.54 10.2,4.4 18.16,7.03 24.37,9 10.24,3.25 19.56,2.79 26.92,1.69 8.21,-1.23 25.29,-10.34 28.85,-20.33 3.56,-9.98 3.56,-18.54 2.49,-20.33 -1.07,-1.78 -3.92,-2.85 -8.19,-4.99 z"
     id="path6"
     style="fill:#ffffff"
     sodipodi:nodetypes="cccccsscccsscccccccccscsscscscscsccssscccccccc" />
</svg>
